<svg width="400" height="400" viewBox="0 0 400 400" fill="none" xmlns="http://www.w3.org/2000/svg">
<g clip-path="url(#clip0_7_2565)">
<path d="M195.726 148.051C187.651 135.1 180.177 123.051 175.366 111.576C173.734 106.904 172.531 102.314 171.758 97.8876C169.009 85.2648 170.212 77.8059 175.194 67.642C175.28 67.3961 175.452 67.2322 175.538 66.9863C177.943 65.6748 181.294 64.4453 185.073 64.1175C193.578 63.2978 207.925 65.347 213.423 80.1009C219.178 95.6745 206.808 126.084 195.726 148.051ZM248.043 60.1831C247.527 59.1995 245.466 55.511 244.778 54.2815C244.607 54.0356 244.521 53.8717 244.521 53.8717C235.586 38.2161 235.243 41.1668 229.659 40.2652C229.487 40.2652 229.229 40.1833 229.058 40.1013C222.7 38.6259 211.704 34.6915 206.378 32.8063C200.88 30.9211 186.362 35.0194 176.998 35.921C174.593 36.1669 172.789 36.5767 171.328 37.0685C167.033 38.6259 165.916 41.4128 164.198 43.6258C163.167 44.9373 162.394 45.3472 161.449 45.5111H161.363C154.061 47.9701 136.88 68.2977 140.574 96.2483C140.832 98.9532 141.433 101.658 142.206 104.281C149.336 131.084 173.132 167.149 178.974 177.313C174.679 186.821 165.487 206.247 162.566 224.526C162.48 225.182 161.707 229.362 161.707 232.886C161.277 242.231 163.167 250.673 168.837 256.821L169.954 257.968C172.875 260.673 176.225 262.394 179.661 263.46C184.558 265.427 188.252 264.362 191.774 263.788C193.406 264.689 195.039 265.427 196.757 266.001C206.98 269.361 218.405 266.657 223.731 263.788C230.947 261.575 234.212 257.558 236.274 251.329C238.335 245.427 241.514 233.46 234.384 215.673C231.205 207.969 224.676 196.002 214.711 178.543L214.625 178.461C222.615 164.035 244.005 128.297 247.871 117.887C248.043 117.314 248.215 116.822 248.472 116.248C254.915 100.511 259.125 79.6091 248.043 60.1831Z" fill="white"/>
<path d="M189.651 196.517C187.331 192.255 182.263 182.993 181.232 180.779C169.463 202.582 166.628 226.845 166.37 233.894C166.456 239.303 166.37 247.5 174.359 251.025C185.098 237.172 166.37 216.517 189.651 196.517Z" fill="#ACA9A6"/>
<path d="M216.627 123.65C219.376 110.618 226.248 99.5522 217.486 81.4377C210.355 66.5198 197.985 61.1919 185.013 64.0608C193.518 63.2411 207.864 65.2903 213.362 80.0442C219.204 95.6179 206.747 126.027 195.665 147.994C195.408 148.486 195.15 149.06 194.892 149.552C200.304 158.486 204.686 166.191 209.926 175.207C209.926 175.207 217.056 164.306 219.977 159.306C214.049 146.027 214.908 131.765 216.627 123.65Z" fill="#ACA9A6"/>
<path d="M250.268 81.2727C250.268 80.8629 250.268 80.3711 250.268 79.9612V79.8793C250.268 79.7153 250.268 79.5514 250.268 79.3055C250.183 77.3383 250.011 75.699 249.839 74.3056C249.667 72.9121 249.409 71.9285 249.152 71.1908C248.121 68.24 245.629 64.7155 242.88 61.3549C237.382 54.7156 230.51 48.6501 230.252 48.4861C229.823 48.6501 229.393 48.896 228.878 49.1419C223.036 52.5025 223.122 57.0926 202.676 47.7484C199.584 46.355 194.773 47.2566 192.11 47.4206C212.727 61.9286 235.407 61.3549 250.268 81.2727Z" fill="#BCBAB7"/>
<path d="M234.394 136.335C235.167 135.187 235.854 134.122 236.541 133.22C237.315 131.991 238.002 130.843 238.689 129.532C239.033 128.958 239.29 128.384 239.634 127.81C248.053 111.745 250.372 92.8928 250.286 81.2535C239.806 52.1554 209.137 65.1061 199.344 46.9915C199.172 46.9915 191.87 47.4014 191.698 47.4014C192.214 47.9751 192.643 48.5489 193.159 49.1227C197.024 53.3849 206.131 61.9914 215.924 64.1225C225.717 66.3356 233.964 67.6471 242.211 79.4503C250.458 91.2534 241.696 107.811 233.964 124.04C230.872 130.515 230.528 137.073 230.098 143.466C231.387 141.827 231.645 139.86 233.105 137.974C233.535 137.483 233.964 136.909 234.394 136.335Z" fill="#CCC9C6"/>
<path d="M242.218 79.4912C233.971 67.688 225.724 66.3765 215.931 64.1634C206.138 61.9503 197.032 53.3439 193.166 49.1636C192.65 48.5898 192.135 48.016 191.705 47.4423C184.919 48.098 179.507 53.2619 175.899 60.6389C174.61 63.1798 173.579 65.9667 172.72 68.9175C175.469 66.7044 180.022 64.5733 185.177 64.0815C198.148 61.2946 210.433 66.6224 217.649 81.4584C226.326 99.5729 219.539 110.638 216.704 123.671C214.986 131.786 214.127 146.048 220.141 159.408C222.202 155.884 224.522 150.966 230.192 143.507C230.621 137.032 230.965 130.556 234.057 124.081C241.703 107.77 250.551 91.2124 242.218 79.4912Z" fill="#BBB8B5"/>
<path d="M183.572 178.481C174.466 190.612 160.377 255.611 180.823 253.398C212.866 249.136 187.781 186.759 183.572 178.481Z" fill="#9A9794"/>
<g opacity="0.33">
<path d="M186.031 59.1127C188.351 58.375 190.67 58.0471 193.076 57.8012C195.481 57.5553 197.886 57.5553 200.292 57.6373C205.103 57.9652 209.913 59.0307 214.295 61.3258C218.59 63.5389 222.284 66.8995 224.947 70.9159C226.236 72.8831 227.352 75.0142 228.211 77.2273C229.07 79.4404 229.758 81.6535 230.187 84.0305C232.163 93.2927 231.304 102.883 229.242 111.981C227.181 121.161 224.002 130.014 220.394 138.538C216.786 147.145 212.491 155.423 208.195 163.62L201.58 175.833L195.137 188.046C191.014 196.161 186.976 204.439 184.227 212.964C183.54 215.095 182.939 217.226 182.509 219.439C181.994 221.57 181.65 223.783 181.564 225.996C181.306 230.423 181.822 234.931 183.626 239.111L183.025 239.357C180.361 235.423 178.987 230.668 178.729 225.996C178.386 221.242 178.987 216.488 180.018 211.898C180.963 207.308 182.423 202.8 184.055 198.374C185.688 193.948 187.492 189.685 189.468 185.423C197.285 168.456 206.391 152.391 214.552 135.997C216.528 131.899 218.59 127.801 220.308 123.62C222.112 119.44 223.744 115.178 225.119 110.915C227.782 102.309 229.328 93.2927 227.954 84.4403C227.61 82.2272 227.009 80.0961 226.321 77.965C225.548 75.8339 224.603 73.7847 223.487 71.8995C221.167 68.047 217.817 64.7684 213.779 62.4733C209.742 60.1783 205.103 58.8668 200.378 58.375C197.972 58.1291 195.653 58.0471 193.247 58.2111C190.756 58.293 188.351 58.5389 186.031 59.1127Z" fill="#797775"/>
</g>
<path d="M210.551 172.133C209.692 170.739 209.091 169.92 209.091 169.92C208.747 169.346 208.403 168.854 208.146 168.362C195.861 147.215 182.545 128.855 175.329 111.56C173.783 106.888 172.494 102.297 171.721 97.8713C168.972 85.2485 170.175 77.7895 175.157 67.6257C180.054 57.7897 194.744 45.4947 202.905 49.2652C220.602 57.3799 223.007 53.4455 227.303 50.1668C227.475 50.0849 227.732 49.839 227.904 49.675C227.99 49.5931 228.505 49.2652 228.591 49.1832C275.238 83.2813 225.327 149.182 210.551 172.133ZM182.202 252.05C180.999 252.214 179.796 252.296 178.68 252.132C176.79 251.886 174.986 251.231 173.182 250.001C170.69 248.362 168.886 245.985 167.855 243.198C164.935 234.919 165.536 218.526 180.999 181.395C182.631 184.756 184.092 187.87 184.779 189.182C193.713 206.395 195.861 222.296 195.861 231.723C194.916 243.69 188.988 250.903 182.202 252.05ZM248.006 60.1667C247.491 59.1831 245.429 55.4946 244.742 54.2651C244.57 54.0192 244.484 53.8553 244.484 53.8553C235.55 38.1178 235.206 41.1505 229.622 40.1669C229.45 40.1669 229.193 40.085 229.021 40.003C222.664 38.6096 211.754 34.6752 206.427 32.7899C200.929 30.8227 186.411 35.003 177.047 35.9047C174.642 36.1506 172.838 36.5604 171.378 37.0522C167.082 38.6915 165.965 41.3964 164.247 43.6095C163.216 44.921 162.443 45.3308 161.498 45.4947C161.498 45.4947 161.498 45.4947 161.412 45.4947C154.11 47.9537 136.929 68.2814 140.623 96.232C140.881 98.9369 141.482 101.642 142.255 104.265C149.386 131.068 173.182 167.133 179.023 177.297C174.728 186.805 165.536 206.231 162.615 224.509C162.529 225.165 161.756 229.345 161.756 232.87C161.327 242.214 163.216 250.739 168.886 256.804C168.886 256.804 170.003 257.952 170.089 257.952C173.01 260.657 176.36 262.378 179.796 263.444C184.693 265.411 188.387 264.345 191.909 263.771C193.541 264.673 195.174 265.411 196.892 265.984C207.115 269.345 218.54 266.64 223.866 263.771C231.083 261.558 234.347 257.542 236.409 251.313C238.471 245.411 241.649 233.444 234.519 215.657C231.254 207.952 224.811 195.985 214.846 178.526L214.76 178.444C222.75 164.018 244.14 128.281 248.006 117.871C248.178 117.297 248.35 116.806 248.607 116.232C254.879 100.576 259.088 79.5928 248.006 60.1667Z" fill="#EFECE8"/>
<path d="M228.773 144.689C228.085 145.755 226.367 148.132 224.22 151.164C218.893 159.771 213.825 167.066 210.561 172.148C211.677 173.787 214.083 177.558 215.114 179.361C214.942 179.115 214.856 178.951 214.77 178.705L214.684 178.623C215.199 177.722 215.801 176.656 216.402 175.59C216.316 169.771 226.711 149.197 228.773 144.689Z" fill="#DAD7D3"/>
<path d="M206.343 36.6928C202.392 34.7256 197.409 34.8076 192.598 35.6272C191.138 35.8731 187.616 36.5289 187.616 36.5289C187.616 36.5289 194.66 38.1682 200.244 40.0534C203.852 41.3649 209.951 43.578 217.253 39.8895L217.425 39.5616C214.161 39.3157 210.037 38.578 206.343 36.6928Z" fill="#BBB8B5"/>
<path d="M183.383 38.2538C181.751 38.8276 180.376 39.4014 179.345 39.8932C166.116 46.8603 162.336 53.8274 161.735 54.4012C161.391 56.8602 160.79 58.6635 160.532 61.6962C162.937 62.9257 174.792 60.7126 182.696 54.811C183.641 53.9914 184.672 53.2537 185.788 52.598C186.218 52.2701 186.562 52.1062 186.905 51.8603C186.991 51.8603 186.991 51.7783 187.077 51.6963C191.544 47.8439 196.87 38.4178 201.853 40.7948C202.282 40.9587 202.626 41.1226 203.056 41.2866C202.454 40.9587 201.853 40.6309 201.252 40.303C197.729 38.4997 193.95 37.1882 189.826 37.1882C187.764 37.1063 185.617 37.5161 183.383 38.2538Z" fill="url(#paint0_linear_7_2565)"/>
<path d="M163.84 46.0657C163.239 47.4591 162.723 48.7706 162.466 50.5738C162.208 51.7214 162.036 53.0328 161.778 54.4263C170.111 44.5903 178.53 40.328 179.389 39.9182C180.334 39.4264 182.997 37.7051 184.2 37.2953C175.18 39.6723 170.111 43.1149 164.699 44.6723C164.527 45.0001 164.012 45.7378 163.84 46.0657Z" fill="#F6F2EE"/>
<path d="M208.111 49.5113C194.28 42.1344 187.149 51.4785 187.149 51.5605L187.064 51.7244C182.167 55.9047 177.27 61.7243 175.208 67.7079C180.105 57.8719 194.795 45.5769 202.956 49.3474C222.371 58.1998 223.402 52.708 228.642 49.2654C224.862 51.3966 221.684 56.7244 208.111 49.5113Z" fill="#EBE7E3"/>
<path d="M227.37 49.8581C218.264 53.4646 212.165 46.4155 203.059 41.2516C202.715 41.0877 202.286 40.9237 201.856 40.7598C195.499 37.7271 184.761 53.7925 184.847 53.7925C186.908 52.3171 194.382 42.1532 208.213 49.5302C221.786 56.7433 223.762 52.645 227.456 50.186C227.628 50.104 228.831 49.2843 228.831 49.2843C228.831 49.2843 227.542 49.6942 227.37 49.8581Z" fill="#FFFBF7"/>
<path d="M182.748 54.7548C174.845 60.4924 162.99 62.8694 160.584 61.6399C159.467 72.9513 156.89 87.5413 159.553 104.099C160.67 111.312 162.216 119.016 163.505 126.557C160.241 102.295 159.553 73.1972 182.748 54.7548Z" fill="#EFECE8"/>
<path d="M171.302 37.1383C167.006 38.7776 165.89 41.4825 164.172 43.6956C163.141 45.007 162.368 45.4169 161.423 45.5808C162.11 45.4169 162.883 45.2529 163.742 45.089C166.147 44.5152 168.209 43.6956 170.615 42.63C172.848 41.7284 175.253 40.6628 178.432 39.4333C180.236 38.7776 183.93 37.4661 185.906 36.9743C187.882 36.4825 193.122 35.5809 193.38 35.5809C193.38 35.5809 195.356 35.335 196.043 35.253C195.785 35.1711 174.051 36.3186 171.302 37.1383Z" fill="#EFECE8"/>
<path d="M226.801 258.823C226.629 259.233 226.457 259.642 226.199 259.97C225.426 261.364 224.653 262.675 223.708 263.905C230.924 261.692 234.189 257.757 236.25 251.446C228.605 259.069 226.801 258.823 226.801 258.823Z" fill="#D2CFCB"/>
<path d="M210.072 260.855C204.316 258.478 199.677 263.15 196.757 266.018C206.98 269.379 218.405 266.674 223.731 263.805C224.59 262.658 225.449 261.346 226.223 259.871C223.216 264.789 215.57 263.232 210.072 260.855Z" fill="#DEDBD7"/>
<path d="M192.333 252.707C195.254 247.215 196.8 237.297 195.941 231.724C194.996 243.609 188.983 250.822 182.196 252.051C180.994 252.215 179.791 252.297 178.674 252.133C176.784 251.888 174.98 251.232 173.176 250.002C172.919 249.838 172.575 249.592 172.317 249.347C167.163 247.871 163.039 243.691 161.751 238.609C161.751 238.527 161.751 238.527 161.751 238.445C161.837 239.265 161.922 240.084 162.008 240.904V241.068C162.352 243.527 162.867 245.904 163.641 248.117C169.31 258.117 185.719 265.248 192.333 252.707Z" fill="#EBE7E3"/>
<path d="M182.17 252.045C180.967 252.209 179.764 252.291 178.648 252.127C176.758 251.881 174.954 251.225 173.15 249.996C171.775 249.094 170.658 247.947 169.713 246.635C165.074 242.045 162.497 233.767 162.068 228.193V228.029C161.896 229.504 161.724 231.226 161.724 232.865C161.552 236.226 161.724 239.504 162.24 242.619C162.24 242.701 162.24 242.701 162.24 242.783C167.394 252.127 181.74 261.471 191.276 245.734C188.785 249.34 185.606 251.471 182.17 252.045Z" fill="#F2EFEA"/>
<path d="M244.443 53.854C235.509 38.1984 235.165 41.1492 229.581 40.2475C222.021 40.6574 213.603 45.6573 202.95 41.3131C217.898 49.8376 230.44 31.4771 244.615 54.2638L244.787 54.5917C244.701 54.5097 244.701 54.4277 244.615 54.3458C244.615 54.0179 244.529 53.854 244.443 53.854Z" fill="#E7E4E0"/>
<path d="M179.703 263.614C183.482 261.401 186.661 258.204 189.238 254.598C182.108 260.827 166.731 258.778 162.264 242.631C163.209 248.123 165.184 253.041 168.878 256.893C168.878 256.893 169.995 258.041 170.081 258.041C172.83 260.827 176.266 262.549 179.703 263.614Z" fill="#CCC9C6"/>
<path d="M206.362 32.8092C200.864 30.842 186.346 35.0223 176.982 35.9239C174.577 36.1698 172.772 36.5796 171.312 37.0714C176.896 35.9239 177.24 37.0714 193.476 35.3501C193.562 35.3501 195.624 35.1862 196.139 35.1042C199.747 34.8583 203.355 35.1042 206.362 36.6616C210.056 38.5468 213.578 39.3665 217.014 39.6944C221.224 40.1042 225.175 39.8583 229.041 40.0222C222.684 38.6288 211.774 34.6944 206.362 32.8092Z" fill="#F2EFEA"/>
<path d="M216.971 39.7146L216.541 39.9605C210.528 43.0752 204.858 41.5998 201.25 40.2883C201.851 40.6162 202.453 40.9441 203.054 41.2719C213.707 45.6161 222.125 40.6162 229.685 40.2064C229.513 40.2064 229.256 40.1244 229.084 40.0424C225.132 39.8785 221.18 40.1244 216.971 39.7146Z" fill="#EBE7E3"/>
<path d="M228.772 216.486C221.899 187.552 206.951 168.7 193.808 153.29C182.64 140.176 176.54 126.077 173.706 113.291C173.963 116.241 174.221 119.274 174.479 122.389C177.056 140.176 183.928 161.241 204.374 185.093C222.844 206.814 226.796 209.765 228.772 216.486Z" fill="#FFFBF7"/>
<path d="M245.025 54.8648L245.197 55.3566C245.283 55.4386 246.486 58.2254 246.486 58.3893C249.922 66.0942 246.4 72.4876 245.713 73.5531C250.695 90.3563 245.455 109.536 237.38 126.995C233.858 134.618 234.029 141.503 232.998 146.339V146.257C239.699 134.454 245.799 123.143 247.688 118.061C247.86 117.487 248.032 116.995 248.29 116.422C254.733 100.602 259.028 79.7006 247.946 60.2746C247.517 59.291 245.97 56.4222 245.025 54.8648Z" fill="#EBE7E3"/>
<path d="M228.674 49.1932C233.57 52.7998 237.007 57.062 239.928 61.2423C238.897 54.603 237.178 47.9637 231.337 48.5375C230.564 48.6195 229.876 48.7014 229.189 49.0293C229.189 49.0293 229.103 48.9473 228.674 49.1932Z" fill="#DEDBD7"/>
<path d="M246.763 58.2052C246.677 58.1232 243.241 53.3691 241.351 51.402C239.203 49.1889 236.111 47.8774 233.362 47.9594C230.87 48.0413 229.839 48.6971 229.066 49.0249C228.98 49.1069 228.808 49.1889 228.723 49.1889C237.141 46.8938 238.688 54.5986 239.976 61.2379C242.639 65.0903 244.615 69.1887 245.818 73.4509C246.247 72.6313 249.856 65.7461 246.763 58.2052Z" fill="#CCC9C6"/>
<path d="M196.765 266.076C200.373 263.207 203.38 260.174 207.245 260.256C204.496 260.174 194.188 262.223 191.782 263.863C193.415 264.764 195.047 265.502 196.765 266.076Z" fill="#D2CFCB"/>
<path d="M231.933 236.107C231.847 233.402 231.503 230.697 230.988 228.157C229.957 222.993 228.067 218.239 225.146 214.304C214.408 199.878 188.636 173.239 182.021 152.501C183.997 165.534 180.647 181.19 186.145 188.813C188.035 191.108 189.839 193.321 191.471 195.534C204.529 210.452 219.82 219.058 219.304 240.288C219.047 251.517 215.095 255.533 209.339 260.697C209.597 260.779 209.769 260.861 210.027 260.943C215.61 263.238 223.17 264.796 226.177 260.041C230.129 252.664 232.362 245.943 231.933 236.107Z" fill="#EFECE8"/>
<path d="M220.354 242.019C223.79 214.806 207.382 200.216 191.661 183.085C189.857 181.117 184.617 178.986 186.679 183.494C195.527 196.773 201.455 209.642 202.829 215.052C211.076 246.691 202.056 256.691 191.833 263.904C194.239 262.264 204.547 260.133 207.296 260.297C207.984 260.297 208.671 260.461 209.444 260.707C214.169 256.527 217.433 254.313 219.237 247.592C219.495 246.691 219.753 245.625 220.01 244.478C220.01 243.658 220.182 242.92 220.354 242.019Z" fill="#E7E4E0"/>
<path d="M208.219 222.167C204.353 207.577 195.333 184.708 179.183 164.791C178.925 165.528 177.551 169.791 176.348 172.987C177.379 174.79 178.324 176.266 179.011 177.413C179.87 178.971 180.386 180.036 181.073 181.512C182.705 184.872 184.165 187.987 184.853 189.299C193.787 206.512 195.935 222.413 195.935 231.839C196.622 243.724 190.351 257.249 179.698 263.642C184.595 265.609 188.289 264.544 191.811 263.97C200.488 260.855 216.466 253.806 208.219 222.167Z" fill="#F2EFEA"/>
<path d="M187.902 47.3949C182.919 49.69 178.624 53.0506 175.102 56.903C171.494 60.7554 168.659 65.1816 166.683 69.9357C162.731 79.5258 162.474 90.0994 164.192 100.263C165.824 110.509 169.69 120.345 171.838 130.755C172.954 135.919 173.556 141.247 173.384 146.574C173.212 151.902 172.181 157.148 170.549 162.148C171.58 156.984 172.181 151.738 171.923 146.574C171.752 141.41 170.807 136.247 169.518 131.247C168.229 126.247 166.597 121.247 165.051 116.165C163.505 111.083 162.044 106.001 161.185 100.673C160.326 95.4272 159.982 90.0175 160.498 84.6896C160.756 81.9848 161.185 79.3618 161.872 76.7389C162.56 74.116 163.419 71.575 164.535 69.116C166.769 64.198 170.033 59.6899 173.985 55.9194C178.023 52.2309 182.748 49.1162 187.902 47.3949Z" fill="#CCC9C6"/>
<path d="M176.684 172.569C177.8 169.782 178.488 166.832 178.831 163.881C179.089 160.93 179.175 157.979 178.917 155.029C178.573 149.127 177.629 143.225 176.684 137.324C175.824 131.422 174.708 125.521 173.935 119.619C173.075 113.717 172.732 107.734 172.13 101.832L177.8 137.16C178.745 143.061 179.604 149.045 179.776 155.029C179.862 158.061 179.69 161.012 179.347 164.045C178.917 166.996 178.058 169.864 176.684 172.569Z" fill="#CCC9C6"/>
<path d="M161.142 51.6421C159.939 55.4126 158.822 59.183 158.049 63.0355C157.19 66.8879 156.588 70.7403 156.159 74.6747C155.3 82.4615 155.3 90.3303 156.159 98.1171C156.932 105.904 158.822 113.527 160.884 121.15C161.915 124.92 162.946 128.773 163.891 132.625C164.75 136.477 165.523 140.412 165.437 144.346C165.265 140.412 164.32 136.559 163.203 132.789C162.172 129.018 160.97 125.248 159.853 121.478C157.533 113.937 155.644 106.232 154.784 98.363C154.355 94.4286 154.183 90.4942 154.183 86.4779C154.269 82.5435 154.441 78.6091 154.956 74.6747C155.472 70.7403 156.245 66.8879 157.276 63.0355C158.393 59.1011 159.595 55.3306 161.142 51.6421Z" fill="#CCC9C6"/>
<path d="M153.429 54.8759C151.625 58.1546 150.422 61.6791 149.391 65.2037C148.36 68.7283 147.673 72.4167 147.158 76.0233C146.127 83.3183 146.041 90.6953 146.814 97.9903C147.587 105.285 149.477 112.498 152.484 119.138C154.03 122.498 155.834 125.777 157.552 129.056C159.27 132.334 161.246 135.531 163.05 138.81C161.848 137.334 160.645 135.859 159.528 134.383C158.411 132.826 157.38 131.269 156.35 129.711C155.405 128.072 154.46 126.515 153.515 124.793C152.656 123.154 151.796 121.433 151.023 119.711C147.931 112.826 146.127 105.449 145.439 98.0722C144.666 90.6133 145.096 83.1543 146.298 75.8593C146.9 72.1708 147.759 68.5643 148.962 65.0398C149.992 61.5972 151.367 58.0726 153.429 54.8759Z" fill="#DEDBD7"/>
<path d="M161.831 54.4192C165.353 49.2553 170.25 45.075 175.576 41.5505C178.239 39.8292 181.16 38.3538 184.252 37.2882C185.369 36.9603 186.486 36.6325 187.689 36.4685C188.118 36.3866 188.634 36.3866 189.149 36.3046C190.008 36.3046 190.867 36.2226 191.726 36.3866C192.585 36.4685 193.444 36.7144 194.132 36.9603C200.317 39.0915 205.729 42.616 211.141 45.8127C213.89 47.3701 216.639 48.9274 219.646 49.8291C221.106 50.3209 222.739 50.5668 224.285 50.4848C225.831 50.4028 227.377 49.911 228.752 49.1733C227.463 50.075 225.917 50.6487 224.285 50.8946C222.653 51.1405 221.02 50.8946 219.388 50.5668C216.21 49.7471 213.375 48.2717 210.54 46.7963C204.956 43.7635 199.63 40.239 193.616 38.3538C192.843 38.1079 192.156 37.862 191.383 37.78C190.61 37.6161 189.922 37.698 189.149 37.698C187.603 37.78 186.142 38.1079 184.596 38.5997C181.589 39.5013 178.84 40.9767 176.091 42.5341C173.428 44.0914 170.851 45.9766 168.446 47.9438C166.04 49.8291 163.807 52.0422 161.831 54.4192Z" fill="#CCC9C6"/>
<path d="M228.675 49.1935C229.964 48.2099 231.596 47.5542 233.314 47.3902C235.032 47.3083 236.75 47.6361 238.297 48.3738C241.046 49.6853 243.021 51.5705 244.654 54.1934C244.74 54.2754 244.825 54.5213 244.997 54.8492C245.083 55.0131 245.169 55.177 245.255 55.259C246.973 58.2918 248.09 61.2426 248.176 64.4393C248.348 67.6359 247.574 70.8326 245.77 73.4556C247.231 70.7507 247.746 67.554 247.489 64.5212C247.145 61.4065 246.114 58.4557 244.482 55.8328C242.85 53.2098 240.616 50.8328 237.867 49.3574C236.493 48.6197 234.946 48.2099 233.4 48.1279C231.768 48.046 230.221 48.4558 228.675 49.1935Z" fill="#BBB8B5"/>
<path d="M180.305 164.109C181.851 170.912 184.171 177.47 187.521 183.617C189.153 186.732 190.957 189.683 193.019 192.551L196.112 196.814L197.658 198.945C198.173 199.683 198.603 200.42 199.118 201.158C201.094 204.109 202.812 207.223 204.359 210.338C205.905 213.535 207.193 216.814 208.138 220.174C209.083 223.535 209.857 226.977 210.114 230.42C210.458 233.863 210.544 235.338 210.372 238.781C210.286 235.338 210.114 233.863 209.599 230.42C209.083 226.977 208.396 223.617 207.279 220.338C206.163 217.059 204.788 213.863 203.328 210.748C201.695 207.633 200.063 204.601 198.087 201.732C197.572 200.994 197.142 200.256 196.627 199.519L195.081 197.387C194.05 195.994 193.019 194.519 191.988 193.125C189.926 190.256 188.122 187.224 186.49 184.027C183.483 177.797 181.336 170.994 180.305 164.109Z" fill="#CCC9C6"/>
<path d="M178.309 145.472C178.825 150.144 180.113 154.734 181.574 159.242C183.034 163.75 184.838 168.094 186.9 172.357C191.11 180.881 196.35 188.914 203.308 195.553C205.026 197.192 206.83 198.914 208.463 200.717C210.095 202.52 211.555 204.487 212.93 206.455C215.593 210.471 217.741 214.815 219.029 219.405C221.263 227.11 221.606 235.225 220.146 243.012C219.888 244.487 219.545 246.044 219.115 247.52C220.06 242.848 220.575 238.176 220.404 233.504C220.232 228.831 219.545 224.159 218.084 219.651C216.624 215.143 214.648 210.881 211.985 206.946C210.61 204.979 209.15 203.094 207.604 201.373C205.971 199.569 204.253 198.012 202.449 196.291C195.491 189.406 190.079 181.291 186.127 172.684C184.151 168.34 182.433 163.914 181.058 159.324C180.371 157.029 179.77 154.734 179.34 152.439C178.825 150.144 178.395 147.767 178.309 145.472Z" fill="#D2CFCB"/>
<path d="M237.197 133.218C239.775 128.464 241.922 123.464 243.726 118.464C245.616 113.464 247.077 108.3 248.365 103.136C249.568 97.9723 250.427 92.7265 250.771 87.3986C250.942 84.7757 250.942 82.0708 250.599 79.4479L250.427 77.4807L249.998 75.5135L249.826 74.5299C249.74 74.202 249.568 73.8742 249.482 73.5463L248.795 71.6611C251.458 76.4151 252.059 82.0708 252.059 87.3986C252.059 90.1035 251.887 92.8084 251.458 95.5133C251.114 98.2182 250.599 100.841 249.998 103.464C248.795 108.71 247.163 113.874 245.015 118.874C243.039 123.956 240.462 128.792 237.197 133.218Z" fill="#FFFBF7"/>
<path d="M200.398 235.197C200.655 224.295 198.508 213.558 194.9 203.394C191.291 193.148 186.309 183.476 180.467 174.214C177.546 169.542 174.54 164.952 171.705 160.198C168.87 155.444 166.121 150.771 163.458 145.935C158.218 136.345 153.235 126.509 149.541 116.182C151.86 121.182 154.266 126.018 157.015 130.772C159.592 135.608 162.341 140.362 165.176 145.034C170.76 154.46 176.601 163.722 182.529 172.984C188.371 182.329 193.353 192.246 196.704 202.738C198.336 207.984 199.624 213.312 200.312 218.722C200.827 224.295 200.999 229.787 200.398 235.197Z" fill="#E1DEDA"/>
<g opacity="0.43">
<path d="M157.01 130.876C159.587 135.712 162.336 140.466 165.171 145.138C166.288 147.106 167.49 148.991 168.607 150.958C171.957 156.04 175.737 161.286 179.861 166.45C198.76 189.892 210.615 213.662 202.111 236.695C200.564 240.875 201.337 242.842 203.313 242.924H203.571C208.983 242.678 222.299 229.646 222.47 209.974V208.99C222.299 195.466 216.027 178.99 196.956 161.45C167.233 139.892 149.536 116.204 149.536 116.204C151.855 121.204 154.347 126.04 157.01 130.876Z" fill="url(#paint1_linear_7_2565)"/>
</g>
<path d="M181.011 181.478C180.324 180.003 179.809 178.938 178.949 177.38C174.654 186.888 165.462 206.314 162.541 224.593C162.455 225.249 161.682 229.429 161.682 232.953C161.768 233.609 161.854 234.183 161.94 234.757C164.517 245.412 168.555 247.216 170.273 247.543C169.242 246.314 168.383 244.921 167.868 243.363C165.033 235.003 165.634 218.609 181.011 181.478Z" fill="#F2EFEA"/>
<path d="M234.375 215.801C231.111 208.178 224.668 196.129 214.703 178.67L214.617 178.588L208.174 168.424C195.889 147.277 182.574 128.916 175.358 111.622C173.811 106.949 172.523 102.359 171.75 97.9331C171.75 97.9331 171.75 97.9331 171.75 97.8512V97.7692C172.437 102.031 172.265 106.458 173.725 113.343C176.56 126.13 182.574 140.228 193.828 153.342C206.971 168.752 221.919 187.604 228.877 216.539C229.736 220.227 231.111 228.588 231.626 236.211C232.228 245.473 230.424 251.948 226.987 258.833C227.073 258.915 229.135 261.62 235.234 253.505C235.75 252.768 236.094 252.112 236.437 251.374C238.327 245.473 241.506 233.506 234.375 215.801Z" fill="#FFFBF7"/>
<path d="M149.02 75.7124C149.02 80.4665 153.058 84.4009 158.127 84.4009C163.109 84.4009 167.233 80.5484 167.233 75.7124C167.233 70.9583 163.195 67.024 158.127 67.024C153.058 67.024 149.02 70.9583 149.02 75.7124ZM159.329 71.6141C158.384 71.2862 157.869 70.4666 157.869 69.5649C157.955 69.5649 158.041 69.5649 158.127 69.5649C159.587 69.5649 160.961 70.0567 162.078 70.8764C161.649 71.4502 160.961 71.778 160.188 71.778C159.845 71.778 159.587 71.696 159.329 71.6141ZM152.027 73.4993C152.543 72.1059 153.659 71.0403 154.948 70.3026C155.12 70.6305 155.292 71.0404 155.292 71.4502C155.292 72.6797 154.261 73.6632 152.972 73.6632C152.629 73.6632 152.285 73.5813 152.027 73.4993ZM156.666 77.9255L155.463 75.7944C155.292 75.5485 155.378 75.3026 155.549 75.0567L157.267 73.3354C157.439 73.1715 157.783 73.0895 158.041 73.1715L160.274 74.237C160.532 74.319 160.704 74.6468 160.618 74.8927L160.274 77.2698C160.274 77.5157 160.016 77.7616 159.759 77.7616L157.267 78.1714H157.182C157.01 78.2534 156.838 78.0894 156.666 77.9255ZM162.508 76.1222C162.508 75.0567 163.281 74.1551 164.312 73.9092C164.484 74.4829 164.57 75.0567 164.57 75.6305C164.57 76.5321 164.398 77.3517 163.968 78.1714C163.109 77.9255 162.508 77.1058 162.508 76.1222ZM151.769 77.1878C151.941 77.1059 152.113 77.1058 152.371 77.1058C153.659 77.1058 154.69 78.0895 154.69 79.3189C154.69 79.8107 154.518 80.3025 154.175 80.6304C153.058 79.8107 152.199 78.5813 151.769 77.1878ZM157.525 81.8599C157.697 80.7943 158.642 79.8927 159.845 79.8927C160.618 79.8927 161.305 80.3025 161.735 80.7943C160.704 81.4501 159.415 81.8599 158.127 81.8599C157.869 81.8599 157.697 81.8599 157.525 81.8599Z" fill="url(#paint2_linear_7_2565)"/>
<path d="M159.157 59.9752L161.219 63.4177L164.827 61.4506L162.765 58.008L159.157 59.9752Z" fill="url(#paint3_linear_7_2565)"/>
<path d="M154.003 91.1224L157.01 93.9092L159.931 91.0404L156.924 88.2535L154.003 91.1224Z" fill="url(#paint4_linear_7_2565)"/>
<path d="M214.995 236.777C214.652 237.186 214.48 237.842 214.394 238.744C214.308 239.645 214.308 240.383 214.394 241.203C214.05 240.875 213.363 240.711 213.019 240.957C213.105 241.285 213.277 241.613 213.277 242.022C213.277 242.268 213.277 242.596 213.277 242.842C212.676 243.252 211.903 243.908 211.817 244.973C211.817 245.137 211.817 245.301 211.817 245.465C211.559 244.727 211.129 243.99 210.958 243.416C210.786 242.842 210.442 242.35 210.098 242.022C210.013 241.94 209.841 241.94 209.755 241.858C209.669 242.022 209.669 242.268 209.583 242.432C209.583 242.514 209.583 242.596 209.497 242.76C209.239 242.514 209.068 242.35 208.896 242.186C208.724 242.104 208.552 242.022 208.38 242.022C207.951 241.94 207.865 242.022 207.865 242.596C207.865 242.76 207.865 243.006 207.865 243.252C206.92 242.924 206.49 243.58 206.49 243.662C206.662 243.826 206.834 243.908 206.92 244.236C206.92 244.481 206.834 244.891 206.748 245.219C206.49 245.875 206.662 247.022 207.178 247.432C207.521 247.76 208.209 247.678 208.638 247.268C209.153 246.776 209.325 245.301 209.068 244.809C208.896 244.563 208.724 244.563 208.38 244.727C208.466 244.891 208.638 245.137 208.638 245.301C208.638 245.547 208.466 245.875 208.209 246.121C207.951 246.367 207.693 246.367 207.435 246.203C207.092 245.793 207.092 245.137 207.435 244.563C207.521 244.399 207.779 244.072 207.865 243.99C208.38 243.662 208.982 243.498 209.325 243.826C209.755 244.072 210.013 244.563 210.013 245.219C210.098 246.367 209.497 248.252 209.497 249.399C209.497 250.465 210.356 250.875 211.301 251.121C211.731 251.203 212.762 251.285 213.019 251.367C214.136 251.776 215.081 251.694 215.682 250.711C216.284 249.727 216.627 247.76 217.315 246.776C217.658 246.203 218.174 245.875 218.603 245.793C219.033 245.711 219.548 246.039 219.806 246.613C219.892 246.776 219.892 247.104 219.892 247.35C219.892 248.006 219.548 248.662 219.033 248.826C218.775 248.908 218.517 248.826 218.431 248.416C218.346 248.17 218.346 247.76 218.431 247.514C218.517 247.35 218.775 247.268 218.947 247.104C218.775 246.776 218.603 246.694 218.346 246.858C217.83 247.104 217.315 248.498 217.572 249.153C217.744 249.727 218.346 250.055 218.775 249.973C219.462 249.809 220.064 248.908 220.15 248.17C220.235 247.842 220.321 247.432 220.407 247.186C220.579 246.94 220.751 246.94 221.009 246.858C221.009 246.858 221.009 246.776 221.094 246.776C220.923 246.039 220.407 246.121 219.978 245.957C220.064 245.711 220.15 245.547 220.235 245.383C220.493 244.891 220.493 244.727 220.064 244.645C219.892 244.563 219.72 244.563 219.462 244.563C219.205 244.563 218.947 244.727 218.689 244.809C218.775 244.645 218.775 244.563 218.775 244.481C218.775 244.317 218.861 244.072 218.861 243.908C218.775 243.908 218.775 243.908 218.689 243.908C218.603 243.908 218.517 243.908 218.431 243.908C218.002 243.99 217.744 244.236 217.229 244.563C216.713 244.809 216.112 245.547 215.596 246.285C215.682 246.039 215.768 245.793 215.854 245.547C216.198 244.727 216.112 244.236 215.768 243.826L215.425 243.252C215.425 243.17 215.511 243.088 215.511 242.924C215.682 242.35 215.94 241.94 216.198 241.449C216.112 241.121 215.425 240.793 214.995 240.957C215.253 240.219 215.425 239.399 215.425 238.498C215.425 237.678 215.167 237.104 214.995 236.695C214.995 236.613 214.909 236.613 214.823 236.613C215.167 236.613 215.081 236.695 214.995 236.777ZM198.501 246.858C198.329 246.367 198.243 245.875 198.072 245.383C197.384 245.547 196.955 246.039 196.697 246.531C196.439 247.022 196.268 247.596 196.01 248.17C195.752 247.924 195.494 247.678 195.151 247.514C194.292 248.498 194.12 249.563 194.893 250.711C195.58 251.694 196.268 252.596 197.041 253.498C197.9 254.481 198.759 255.465 198.759 256.858C198.845 258.088 198.157 259.153 197.041 260.055C196.182 260.793 195.151 261.039 193.948 261.039C193.948 261.039 193.776 261.366 193.776 261.448C193.862 261.94 194.807 261.694 195.237 261.612C198.673 260.793 200.906 258.252 199.876 255.711C199.446 254.727 198.157 253.088 197.642 252.104C197.213 251.285 196.783 250.465 197.041 249.563C197.298 248.416 198.415 247.35 199.876 247.596C200.735 247.76 201.336 248.334 201.336 249.153C201.336 249.645 200.907 250.301 200.391 250.547C200.047 250.711 199.704 250.711 199.446 250.465C199.188 250.219 199.188 249.973 199.36 249.645C199.36 249.563 199.36 249.563 199.446 249.481C198.931 249.481 198.243 250.219 198.329 250.793C198.501 251.776 200.735 252.514 201.766 251.858C202.711 251.285 203.226 249.891 202.882 248.826C202.539 247.76 202.023 247.186 200.992 246.858C200.906 246.776 200.821 246.776 200.735 246.695C200.906 246.203 201.078 245.711 201.336 245.301C201.25 245.301 201.164 245.301 201.164 245.301C199.79 245.219 199.102 245.957 198.501 246.858ZM206.405 250.793C205.717 251.039 204.944 251.858 204.772 252.35C205.116 252.268 205.374 252.186 205.717 252.104C206.319 252.022 206.748 252.35 206.834 252.842C206.92 253.334 206.576 254.153 206.061 254.563C205.288 255.219 204.429 255.793 203.57 256.367C202.625 257.022 202.195 257.842 202.195 258.826C202.281 260.055 203.398 260.957 203.57 261.121C201.851 263.17 199.876 264.891 197.814 266.448C198.415 266.612 198.931 266.776 199.532 266.858C201.336 265.383 203.14 263.825 204.858 262.022C206.319 262.678 208.123 262.76 209.497 261.776C210.442 261.121 210.786 260.301 211.215 259.481C211.473 258.826 211.731 258.17 211.903 257.514C212.246 256.612 212.933 255.875 213.621 255.629C214.308 255.383 214.652 255.711 214.737 256.53C214.737 256.612 214.737 256.776 214.737 256.94C215.167 256.367 215.339 255.875 215.511 255.301C215.768 254.317 215.511 253.744 215.081 253.334C214.566 252.842 213.707 252.842 212.847 253.498C212.504 253.744 212.074 254.235 211.731 254.645C211.301 255.219 210.958 255.875 210.7 256.449C209.669 257.76 208.81 258.58 208.294 259.071C208.896 258.17 209.411 257.186 209.841 256.203C210.184 255.383 210.528 254.481 210.786 253.662C210.786 253.58 210.872 253.416 210.872 253.252C210.7 253.416 210.614 253.416 210.528 253.498C209.325 254.891 207.951 256.203 206.576 257.432C206.404 257.514 206.319 257.678 206.233 257.842C206.319 257.186 206.834 256.285 207.349 255.547C207.521 255.383 207.779 255.137 207.951 254.973C208.552 254.317 208.982 253.58 209.325 252.842C209.755 251.858 209.411 251.285 208.81 250.875C208.466 250.629 208.123 250.547 207.693 250.547C207.264 250.547 206.834 250.629 206.405 250.793ZM192.574 253.17C191.972 253.17 190.77 253.088 190.77 253.17C194.12 254.809 195.065 256.94 195.58 259.645C196.268 259.317 197.041 257.268 196.869 256.203C196.697 254.727 195.838 253.662 194.464 252.596C194.464 252.76 194.378 252.924 194.378 253.088C193.604 252.76 193.089 252.022 192.144 251.858C192.23 252.35 192.402 252.76 192.574 253.17ZM222.469 257.022C222.383 257.022 222.297 256.94 222.211 256.94C221.61 256.612 219.205 256.121 217.916 257.35C217.057 258.252 216.026 260.465 217.572 261.448C217.916 261.694 218.26 261.94 218.861 261.612C219.376 261.366 219.72 260.957 219.892 260.383C219.978 260.301 219.978 260.219 219.978 260.055C219.892 260.137 219.806 260.137 219.806 260.219C219.29 260.711 219.033 260.875 218.775 260.711C218.517 260.547 218.345 259.727 218.603 259.235C219.376 258.006 220.751 257.514 221.438 257.924C221.954 258.252 222.125 258.907 221.696 259.973C221.18 261.203 220.321 262.104 219.29 262.514C218.346 262.924 217.401 263.006 216.456 263.17C215.854 263.252 215.339 263.088 214.737 263.006C213.964 262.842 213.191 262.678 212.332 262.924C210.013 263.58 207.349 265.547 205.803 267.596C206.147 267.596 206.405 267.596 206.748 267.596C207.178 267.104 207.693 266.612 208.294 266.203C210.098 264.891 211.817 264.235 213.449 264.317C214.737 264.399 215.94 264.645 217.143 264.645C217.916 264.645 218.603 264.727 219.376 264.563C220.493 264.399 221.524 263.58 222.383 262.186C222.125 262.104 221.782 262.104 221.524 262.022C222.813 260.957 223.758 259.645 224.101 258.006C223.586 258.334 223.07 258.662 222.555 258.907C222.899 258.252 223.242 257.596 223.414 256.94C223.672 256.285 223.586 255.711 223.328 255.383C223.156 255.957 222.813 256.448 222.469 257.022ZM197.298 261.776C196.611 262.35 196.611 263.252 197.213 263.989C197.384 264.235 197.642 264.481 197.814 264.645C198.415 264.153 199.017 263.662 199.618 263.17C200.992 262.186 201.336 261.039 201.164 259.809C201.078 259.481 200.992 259.235 200.992 258.907C199.618 259.973 198.415 260.875 197.298 261.776ZM191.285 262.104C190.598 262.104 189.996 262.022 189.395 261.94C189.395 262.022 190.082 262.596 190.512 262.924C190.254 263.17 189.91 263.416 189.653 263.58C192.574 263.498 194.807 264.809 197.041 266.121C196.783 264.399 194.206 262.104 191.199 261.694C191.199 261.858 191.285 261.94 191.285 262.104ZM203.14 265.711C202.711 266.203 202.023 266.694 201.422 267.186C202.453 267.35 203.484 267.432 204.515 267.514C204.6 267.432 204.772 267.432 204.858 267.35C205.46 266.94 205.889 266.448 206.405 265.957C206.748 265.629 207.006 265.137 207.349 264.809C207.693 264.399 208.037 264.071 208.38 263.662C206.233 263.662 204.515 264.235 203.14 265.711ZM214.222 265.629C212.418 265.793 210.356 266.612 208.466 267.596C211.559 267.514 214.48 267.022 217.057 266.366C216.456 265.875 215.768 265.629 214.737 265.629C214.566 265.629 214.394 265.629 214.222 265.629Z" fill="url(#paint5_linear_7_2565)"/>
<path d="M196.182 175.875C196.096 175.875 196.01 175.957 196.01 176.039C196.01 176.531 196.182 177.105 196.697 177.925C197.298 178.744 197.9 179.4 198.587 179.892C198.157 179.974 197.728 180.63 197.9 181.039C198.415 181.367 198.931 181.613 199.446 182.023C200.477 182.843 200.992 182.433 201.078 182.023C201.078 181.859 200.906 181.695 200.735 181.367C200.992 181.531 201.164 181.695 201.422 181.695C201.851 181.613 202.195 181.367 201.851 180.712C201.68 180.384 201.336 179.974 201.164 179.646C200.992 179.236 200.906 178.908 200.735 178.58C200.219 178.58 199.704 178.99 199.618 179.564C199.188 178.826 198.759 178.089 198.157 177.351C197.556 176.613 196.955 176.121 196.439 175.875H196.353H196.182ZM204.858 179.072C204.944 179.892 205.889 181.285 206.834 182.351C206.405 181.449 206.576 180.957 206.92 180.548C207.092 180.384 207.006 179.81 206.49 179.236C206.319 178.99 205.889 178.58 205.545 178.498C205.46 178.498 205.374 178.498 205.288 178.498C204.944 178.416 204.772 178.744 204.858 179.072ZM210.958 179.892C210.786 180.056 210.356 180.384 210.184 181.449C210.013 181.203 209.497 180.793 209.325 180.63C209.239 180.793 209.153 180.875 209.068 181.039C208.896 181.531 208.982 182.187 209.325 182.843C209.927 183.99 210.7 185.138 211.387 186.285C212.676 188.334 213.964 190.384 213.191 192.187C213.363 192.187 213.363 192.187 213.449 192.187C213.535 192.187 213.535 192.105 213.535 192.105C214.48 191.449 215.253 190.384 214.48 189.072C213.792 187.679 211.817 186.039 211.129 184.646C210.7 183.826 210.7 183.17 210.958 182.597C211.215 182.105 211.988 181.859 212.762 181.941C212.933 181.941 213.449 182.187 213.621 182.351C214.394 182.843 214.823 183.58 214.737 184.236C214.652 184.564 214.308 184.728 213.878 184.646C213.535 184.564 213.105 184.236 212.933 183.99C212.762 183.744 212.847 183.416 212.847 183.171C212.246 183.089 212.16 183.17 212.074 183.662C212.074 184.4 212.933 185.384 213.878 185.63C214.737 185.875 215.511 185.466 215.682 184.892C215.94 184.072 215.682 183.252 214.909 182.597C214.566 182.269 214.136 181.941 214.05 181.613C213.964 181.285 214.05 181.039 214.136 180.793C214.136 180.793 214.136 180.711 214.05 180.63C213.105 180.22 212.847 180.875 212.246 181.203C212.074 180.957 211.903 180.712 211.817 180.466C211.559 180.056 211.473 179.892 211.301 179.892C211.215 179.646 211.129 179.728 210.958 179.892ZM203.312 181.039C203.14 181.203 203.054 181.449 203.226 181.777C203.57 182.351 204.257 182.925 204.944 183.334C206.319 183.99 207.607 184.974 208.552 186.203C208.724 186.449 208.896 186.613 208.982 186.859C208.209 186.121 207.264 185.384 206.405 184.646C205.46 183.908 204.6 183.58 203.827 183.58C203.57 183.58 203.484 183.744 203.484 183.99C203.484 184.728 204.085 185.466 204.858 186.367C205.545 187.105 206.147 188.006 206.92 188.826C206.748 188.662 206.576 188.58 206.49 188.498C205.374 187.679 204.429 186.613 203.655 185.466C203.312 184.892 201.594 182.843 200.821 183.908C200.563 184.236 200.992 184.974 201.766 185.548C202.453 186.039 203.226 186.449 203.913 186.941C203.913 187.761 204.257 188.252 205.288 188.99C205.889 189.4 206.49 189.728 207.092 190.056C207.264 190.138 207.521 190.384 207.607 190.547C207.865 191.367 208.466 191.777 209.068 192.023C209.755 192.351 210.356 192.351 210.786 192.351C211.215 192.351 211.645 192.105 211.903 191.777C212.332 191.285 212.59 189.892 211.988 188.744C211.817 188.416 211.387 188.007 211.043 187.679C210.786 187.433 210.614 187.269 210.442 186.941C210.098 186.285 209.669 185.548 209.239 184.892C208.552 183.99 207.951 183.662 207.264 183.744C206.662 183.007 206.147 182.433 205.545 181.777C204.944 181.203 204.343 180.875 203.913 180.875C203.484 180.957 203.398 180.957 203.312 181.039ZM198.587 186.941C198.587 187.843 200.047 188.007 200.391 187.843C200.821 187.679 201.164 187.351 201.594 187.187C201.937 187.105 202.367 187.187 202.882 187.269C201.937 186.695 200.477 186.039 199.532 186.039C198.931 186.039 198.587 186.285 198.587 186.941ZM200.649 188.662C200.477 188.662 200.391 188.826 200.219 188.908C200.391 189.154 200.735 189.646 200.992 189.81C200.563 189.892 200.219 189.892 199.962 190.056C199.704 190.138 199.532 190.302 199.36 190.465C198.931 190.793 199.017 190.957 199.704 191.367C199.962 191.531 200.133 191.695 200.477 191.859C199.446 192.515 199.876 193.58 199.962 193.58C200.305 193.498 200.563 193.416 200.821 193.58C201.164 193.744 201.508 194.072 201.766 194.482C202.367 195.22 203.226 195.547 204.085 195.383C204.686 195.22 205.116 194.482 204.944 193.662C204.772 192.761 203.741 191.859 203.054 191.777C202.625 191.777 202.539 191.941 202.539 192.433C202.796 192.515 203.14 192.433 203.398 192.597C203.656 192.843 203.913 193.252 203.999 193.58C204.085 193.99 203.913 194.318 203.57 194.4C202.882 194.482 202.109 194.072 201.68 193.252C201.508 193.006 201.336 192.597 201.336 192.351C201.336 191.531 201.594 190.875 202.195 190.711C202.796 190.466 203.484 190.547 204.343 190.957C205.717 191.695 207.435 193.662 208.81 194.482C210.098 195.22 211.301 194.646 212.074 193.744L212.16 193.662C212.16 193.662 212.16 193.58 212.16 193.416C210.184 193.99 208.209 192.679 206.147 191.285C205.03 190.547 203.913 189.81 202.711 189.154C202.195 188.826 201.766 188.744 201.25 188.744C200.992 188.58 200.821 188.58 200.649 188.662ZM217.057 189.564C216.026 190.056 215.596 191.449 216.541 193.252C216.799 193.662 217.057 194.154 217.401 194.564C218.689 196.121 220.064 197.351 221.524 198.58C222.383 199.4 223.156 200.22 224.015 201.121C226.077 203.334 225.733 205.957 225.819 206.121C226.764 204.646 227.537 203.17 226.764 200.875C226.249 199.4 225.218 198.416 224.187 197.597C223.414 196.941 222.555 196.367 221.696 195.711C220.579 194.892 219.806 193.662 219.806 192.597C219.806 191.613 220.407 191.285 221.61 191.613C221.782 191.613 221.868 191.695 222.125 191.777C221.696 190.957 220.923 190.465 220.235 190.056C219.462 189.646 218.861 189.482 218.26 189.482C217.744 189.318 217.401 189.482 217.057 189.564ZM215.339 195.711C216.799 198.006 218.002 200.383 219.119 202.76C219.72 203.908 220.579 205.056 221.352 206.039C221.61 206.449 222.211 206.531 222.727 206.613C223.07 206.695 223.242 206.777 223.5 207.105C226.077 211.613 228.139 216.367 229.771 220.957C229.857 221.121 229.857 221.367 229.771 221.449C229.084 222.842 229.513 223.826 230.201 224.728C230.802 225.465 231.919 226.859 232.262 226.859C232.348 226.039 232.434 225.137 232.434 224.318C232.434 223.58 232.434 222.76 232.176 222.023C232.005 221.613 231.575 221.367 231.231 221.039C230.974 220.793 230.63 220.629 230.544 220.301C228.826 215.793 226.764 211.121 224.101 206.695C223.844 206.203 223.758 205.957 223.929 205.465C224.187 204.728 223.929 203.826 223.5 203.006C222.297 200.957 220.579 199.318 218.861 197.924C217.83 197.023 216.713 196.285 215.596 195.465C215.425 195.384 215.339 195.302 215.081 195.138C215.167 195.383 215.253 195.547 215.339 195.711ZM210.614 196.777C209.755 197.433 209.239 198.334 209.411 199.81C209.497 200.793 210.184 202.269 210.958 202.679C210.958 202.187 210.958 201.777 211.043 201.367C211.215 200.547 211.817 200.138 212.676 200.22C213.363 200.301 214.394 201.203 214.737 202.023C215.339 203.416 215.768 204.728 216.198 206.121C216.713 207.678 217.658 208.662 219.119 208.99C220.235 209.236 221.352 209.072 222.383 208.58C221.954 208.334 221.524 208.088 221.18 207.924C219.978 207.269 219.205 206.121 218.603 204.728C217.83 203.006 217.143 201.285 216.112 199.728C215.425 198.662 214.566 197.679 213.707 196.941C213.105 196.449 212.504 196.203 211.988 196.203C211.473 196.367 210.958 196.531 210.614 196.777ZM201.422 207.678C200.649 207.596 199.962 207.433 199.102 207.351C198.845 208.252 199.274 208.99 199.79 209.728C200.305 210.383 200.992 210.875 201.594 211.531C201.164 211.695 200.649 211.941 200.133 212.105C200.906 213.744 202.195 214.564 204.343 214.318C206.061 214.154 207.693 213.744 209.325 213.416C211.215 213.006 213.019 212.596 214.823 213.334C216.541 213.99 217.572 215.465 218.088 217.351C218.517 218.826 218.26 220.219 217.572 221.695C217.572 221.777 217.916 222.023 218.002 222.105C218.174 221.531 218.861 220.547 219.033 219.973C219.978 215.301 216.713 212.023 212.676 211.777C211.129 211.613 209.497 211.859 207.865 211.859C206.576 211.859 205.202 211.859 204.085 211.121C202.711 210.137 201.937 208.17 203.14 206.531C203.827 205.629 205.03 205.219 206.147 205.711C206.834 206.039 207.435 206.941 207.435 207.76C207.435 208.252 207.264 208.744 206.834 208.908C206.405 209.072 205.975 208.908 205.717 208.498C205.631 208.416 205.631 208.416 205.545 208.334C205.288 208.99 205.803 210.219 206.576 210.465C207.951 210.875 209.239 209.236 208.982 207.597C208.724 206.121 208.037 204.892 206.662 204.318C205.202 203.662 203.913 203.908 202.796 204.974C202.711 205.056 202.539 205.138 202.453 205.301C201.851 204.728 201.422 204.236 200.906 203.744C199.962 204.974 200.477 206.285 201.422 207.678ZM209.068 210.137C210.614 210.055 212.16 208.252 211.473 206.531C210.958 205.301 209.411 204.236 208.209 203.58C210.013 205.629 210.786 207.924 209.068 210.137ZM228.568 212.76C229.084 213.662 229.427 214.646 229.857 215.547C231.317 214.728 232.348 213.006 231.747 211.203C231.403 210.301 230.888 209.4 230.372 208.58C230.029 207.924 229.513 207.351 229.084 206.777C228.654 206.203 228.311 205.547 227.967 204.892C227.108 207.678 227.108 210.301 228.568 212.76ZM222.984 216.285C223.5 217.514 224.874 217.924 226.163 217.514C226.593 217.35 227.022 217.187 227.366 217.023C226.936 215.957 226.507 215.055 226.077 213.99C225.304 211.777 223.844 210.711 221.954 210.383C221.524 210.301 221.009 210.301 220.493 210.219C221.524 212.351 222.211 214.318 222.984 216.285ZM206.834 216.039C207.092 216.203 207.264 216.285 207.435 216.367C206.576 217.187 205.288 217.514 204.6 218.744C205.374 218.744 205.975 218.744 206.662 218.744C206.319 219.482 205.717 221.039 205.803 221.039C209.669 217.432 213.363 217.269 217.486 217.842C217.315 216.777 214.737 214.892 213.105 214.482C212.59 214.4 212.074 214.318 211.645 214.318C210.013 214.4 208.466 215.055 206.834 216.039ZM231.489 217.269C232.52 216.859 233.551 216.531 234.582 216.285C234.496 216.121 234.41 215.957 234.41 215.793C234.238 215.383 234.066 214.974 233.809 214.482C232.778 215.219 231.919 216.285 231.489 217.269ZM231.661 219.728C231.575 219.728 231.575 219.809 231.489 219.973C233.035 220.219 233.637 221.531 233.895 223.088C234.84 222.842 235.183 222.105 235.613 221.449C235.956 221.777 236.3 222.105 236.644 222.35C236.3 221.285 235.956 220.137 235.613 218.99C235.441 218.99 235.183 218.99 235.011 218.99C233.809 218.908 232.778 219.236 231.661 219.728ZM218.002 224.891C218.174 224.891 218.345 224.891 218.603 224.891C218.26 225.711 217.916 226.531 217.486 227.268C217.572 227.268 218.775 226.695 219.462 226.285C219.634 226.777 219.806 227.268 220.064 227.678C221.352 223.744 224.273 221.531 227.194 219.236C226.936 219.236 226.764 219.154 226.507 219.154C223.844 219.318 219.892 221.449 218.002 224.891ZM227.623 222.269C226.593 223.088 225.648 223.99 225.132 225.301C224.617 226.531 224.788 227.514 225.562 228.334C226.593 227.432 227.366 226.531 227.022 225.383C227.709 225.383 228.397 225.301 229.256 225.219C228.654 223.908 228.225 222.678 229.084 221.285C228.998 221.285 228.998 221.203 228.912 221.203C228.568 221.531 228.053 221.859 227.623 222.269ZM233.637 223.99C234.152 224.809 234.496 225.629 235.097 226.203C235.441 226.695 236.042 226.941 236.815 226.695C237.073 226.613 237.417 226.367 237.589 226.039C237.503 225.711 237.417 225.383 237.331 225.055C236.815 225.137 236.386 224.809 236.042 224.564C235.441 224.154 234.925 223.908 234.066 223.908C233.98 223.99 233.809 223.99 233.637 223.99ZM228.225 228.088C228.053 228.744 227.709 229.318 226.764 229.482C227.108 229.973 227.709 230.055 228.311 230.055C228.912 229.973 229.342 229.564 229.599 229.154C230.029 228.498 230.029 227.596 229.943 226.941C229.857 226.531 229.771 226.121 229.685 225.793C228.912 226.449 228.482 227.186 228.225 228.088ZM234.668 229.154C235.355 229.564 236.472 229.072 237.073 227.924C236.128 228.17 235.785 227.596 235.269 227.105C234.84 226.695 234.238 226.449 233.723 226.039C233.379 227.268 233.895 228.744 234.668 229.154ZM230.63 228.99C230.63 229.645 230.63 230.219 230.029 230.793C230.63 230.957 231.231 230.793 231.747 230.383C232.262 230.055 232.434 229.564 232.348 229.072C232.262 228.17 231.575 227.105 230.716 226.695C230.716 227.514 230.544 228.334 230.63 228.99ZM233.551 231.613C233.637 231.777 233.723 231.777 233.895 231.777H233.98C234.066 231.777 234.238 231.695 234.41 231.613C234.84 231.367 235.011 231.121 234.925 230.793C234.754 229.891 234.066 229.318 233.207 228.744C233.121 229.891 233.035 230.875 233.551 231.613Z" fill="url(#paint6_linear_7_2565)"/>
<path d="M168.023 168.339L169.312 167.601L165.704 161.618L164.415 162.356L165.79 164.651L159.261 168.257L160.12 169.651L166.649 166.044L168.023 168.339ZM173.865 175.224L167.336 176.208L171.459 171.29L170.171 169.159L162.267 173.503L163.126 174.897L169.14 171.618L164.415 177.028L165.102 178.175L172.404 177.028L166.391 180.306L167.25 181.7L175.153 177.355L173.865 175.224Z" fill="#BCBAB7"/>
<path d="M179.229 352.573C177.419 352.573 176.67 350.251 176.67 343.939C176.67 340.664 178.355 339.83 183.098 339.83C184.346 339.83 185.345 339.83 186.281 339.83C184.783 344.356 182.724 352.573 179.229 352.573ZM169.555 348.226C169.555 349.894 169.742 351.323 170.054 352.514H144.841C141.47 352.514 139.348 351.799 139.348 348.822V340.604H147.212C147.836 338.758 148.273 337.091 148.523 335.304H139.286C139.348 332.803 139.536 330.541 139.723 327.92C136.727 328.933 134.356 330.124 132.421 332.208V335.304H128.364C128.052 337.508 128.052 339.175 127.927 340.604H132.421V349.239C132.421 355.253 136.228 357.873 141.47 357.873H175.734C179.915 357.873 183.16 354.598 186.281 347.154V357.873H193.146V335.304C190.026 335.066 187.217 334.888 184.097 334.888C175.609 334.888 169.555 338.282 169.555 348.226ZM205.628 345.725V343.522C205.628 340.664 205.441 338.163 205.004 335.304H198.326C198.513 338.163 198.763 340.604 198.763 343.522V357.873H205.628C205.628 349.834 208.312 340.664 215.489 341.676C215.489 340.247 215.302 336.972 214.865 334.888C209.622 335.364 207.064 339.771 205.628 345.725ZM110.952 352.573C109.142 352.573 108.393 350.251 108.393 343.939C108.393 340.664 110.078 339.83 114.821 339.83C116.069 339.83 117.068 339.83 118.067 339.83C116.506 344.356 114.447 352.573 110.952 352.573ZM101.278 348.226C101.278 355.015 103.837 358.29 107.27 358.29C111.513 358.29 114.821 354.717 118.004 347.154V357.873H124.869V335.304C121.749 335.066 118.94 334.888 115.82 334.888C107.332 334.888 101.278 338.282 101.278 348.226ZM325.331 337.805C325.331 332.208 321.274 328.814 313.972 328.814C309.916 328.814 306.982 329.647 305.173 330.481C304.112 331.851 303.675 333.458 303.051 336.019C305.797 335.007 308.48 334.173 312.475 334.173C315.72 334.173 318.279 335.483 318.279 339.115C318.279 342.986 315.72 345.844 301.927 353.467C301.927 354.3 301.99 355.908 302.364 357.992H325.081C325.706 356.146 326.142 354.479 326.392 352.692H306.982C316.656 349.417 325.331 346.083 325.331 337.805ZM85.0515 351.561L84.677 351.382C80.558 349.298 75.0034 346.083 75.0034 340.247C75.0034 334.888 78.6232 332.387 82.9296 332.387C87.7351 332.387 90.6684 335.602 90.6684 341.259C90.7308 345.249 88.4841 348.703 85.0515 351.561ZM98.2201 358.29L86.9238 352.514C93.3521 350.31 98.0328 345.904 98.0328 339.711C98.0328 331.374 91.4798 327.146 82.992 327.146C75.1907 327.146 67.7639 331.91 67.7639 341.081C67.7639 348.822 73.9425 353.467 80.7452 356.861L102.589 367.698C102.526 362.935 101.965 360.195 98.2201 358.29ZM259.114 355.848C257.179 355.848 251.188 352.097 251.188 342.093C251.188 337.15 254.183 334.113 259.114 334.113C264.044 334.113 267.04 337.21 267.04 342.093C267.102 352.097 261.048 355.848 259.114 355.848ZM259.114 328.754C250.501 328.754 244.073 333.697 244.073 341.676C244.073 352.156 254.62 358.29 259.114 358.29C263.607 358.29 274.155 352.156 274.155 341.676C274.155 333.697 267.726 328.754 259.114 328.754ZM259.239 339.949C257.741 340.961 256.43 342.152 255.307 343.522C256.43 344.892 257.741 346.083 259.239 347.095C260.736 346.083 262.047 344.892 263.17 343.522C262.047 342.152 260.736 340.961 259.239 339.949ZM298.682 337.805C298.682 332.208 294.625 328.814 287.261 328.814C283.204 328.814 280.271 329.647 278.461 330.481C277.462 331.851 276.963 333.458 276.339 336.019C279.085 335.007 281.769 334.173 285.825 334.173C289.071 334.173 291.63 335.483 291.63 339.115C291.63 342.986 289.071 345.844 275.278 353.467C275.278 354.3 275.34 355.908 275.715 357.992H298.495C299.119 356.146 299.556 354.479 299.805 352.692H280.396C290.069 349.417 298.682 346.083 298.682 337.805ZM240.64 337.805C240.64 332.208 236.584 328.814 229.282 328.814C225.225 328.814 222.292 329.647 220.482 330.481C219.421 331.851 218.984 333.458 218.36 336.019C221.106 335.007 223.79 334.173 227.784 334.173C231.029 334.173 233.588 335.483 233.588 339.115C233.588 342.986 231.029 345.844 217.236 353.467C217.236 354.3 217.299 355.908 217.673 357.992H240.453C241.077 356.146 241.514 354.479 241.764 352.692H222.354C232.028 349.417 240.64 346.083 240.64 337.805Z" fill="#9A1032"/>
<path d="M299.314 319.132C298.316 319.37 297.255 319.608 296.132 319.787C294.946 320.025 293.51 320.085 291.763 320.085C290.078 320.085 288.33 319.847 286.583 319.43C284.835 319.013 283.275 318.298 281.902 317.286C280.529 316.333 279.343 315.023 278.469 313.415C277.596 311.808 277.159 309.902 277.159 307.58C277.159 305.496 277.533 303.59 278.282 302.042C279.031 300.434 280.03 299.124 281.34 298.052C282.651 296.98 284.211 296.206 285.959 295.67C287.769 295.134 289.703 294.896 291.763 294.896C293.073 294.896 294.384 295.015 295.57 295.253C296.818 295.492 298.066 295.789 299.314 296.147L298.753 301.387C297.629 300.791 296.568 300.374 295.507 300.077C294.447 299.779 293.323 299.66 292.137 299.66C290.889 299.66 289.828 299.839 288.83 300.255C287.831 300.672 287.02 301.208 286.333 301.863C285.647 302.578 285.085 303.411 284.71 304.364C284.336 305.317 284.149 306.389 284.149 307.52C284.149 308.711 284.336 309.783 284.773 310.736C285.21 311.689 285.771 312.463 286.52 313.177C287.269 313.832 288.143 314.368 289.204 314.666C290.265 315.023 291.388 315.202 292.637 315.202C293.76 315.202 294.883 315.083 295.944 314.845C297.068 314.606 298.066 314.309 299.002 313.951L299.314 319.132Z" fill="#9A1032"/>
<path d="M323.761 310.406C323.761 312.073 323.511 313.502 322.949 314.753C322.388 315.944 321.639 316.956 320.64 317.73C319.642 318.505 318.456 319.1 317.083 319.517C315.71 319.934 314.212 320.112 312.527 320.112C310.904 320.112 309.344 319.934 307.971 319.517C306.598 319.16 305.412 318.564 304.414 317.73C303.415 316.956 302.666 315.944 302.104 314.753C301.543 313.562 301.293 312.133 301.293 310.406V295.34H308.096V309.334C308.096 310.168 308.158 310.882 308.283 311.597C308.408 312.312 308.657 312.907 308.97 313.502C309.282 314.038 309.718 314.455 310.28 314.813C310.842 315.11 311.528 315.289 312.402 315.289C313.276 315.289 314.025 315.11 314.586 314.813C315.148 314.515 315.585 314.098 315.897 313.502C316.209 312.967 316.459 312.312 316.584 311.597C316.708 310.882 316.771 310.108 316.771 309.334V295.34H323.574V310.406H323.761Z" fill="#9A1032"/>
<path d="M333.946 306.584H335.693C336.255 306.584 336.817 306.525 337.316 306.406C337.815 306.287 338.252 306.108 338.626 305.87C339.001 305.632 339.313 305.274 339.5 304.798C339.687 304.381 339.812 303.845 339.812 303.19C339.812 302.535 339.687 302.059 339.5 301.642C339.251 301.225 339.001 300.868 338.626 300.63C338.252 300.391 337.815 300.213 337.316 300.094C336.817 299.975 336.255 299.915 335.693 299.915H333.946V306.584ZM327.143 295.33H335.256C339.188 295.33 342.059 295.985 343.931 297.235C345.804 298.545 346.677 300.511 346.677 303.309C346.677 305.751 345.804 307.716 343.994 309.085C342.184 310.455 339.75 311.17 336.567 311.17H333.946V319.685H327.143V295.33Z" fill="#9A1032"/>
<path d="M135.521 295.339H142.449L145.757 314.037H145.819L149.252 295.339H157.864L161.422 314.037H161.484L164.792 295.339H171.407L165.728 319.635H156.99L153.371 300.937H153.308L149.938 319.635H141.138L135.521 295.339Z" fill="#9A1032"/>
<path d="M178.653 307.488C178.653 308.501 178.778 309.453 178.965 310.406C179.153 311.359 179.527 312.193 179.964 312.907C180.401 313.622 181.025 314.217 181.774 314.634C182.523 315.051 183.397 315.289 184.395 315.289C185.394 315.289 186.267 315.051 187.016 314.634C187.765 314.217 188.327 313.622 188.826 312.907C189.263 312.193 189.638 311.359 189.825 310.406C190.012 309.453 190.137 308.501 190.137 307.488C190.137 306.476 190.012 305.464 189.825 304.511C189.575 303.558 189.263 302.724 188.826 302.01C188.389 301.295 187.765 300.759 187.016 300.343C186.267 299.926 185.394 299.747 184.395 299.747C183.397 299.747 182.523 299.926 181.774 300.343C181.025 300.759 180.463 301.355 179.964 302.01C179.527 302.724 179.153 303.558 178.965 304.511C178.778 305.464 178.653 306.476 178.653 307.488ZM171.663 307.488C171.663 305.523 171.913 303.796 172.475 302.248C173.036 300.7 173.848 299.39 174.909 298.318C175.97 297.246 177.343 296.412 178.903 295.817C180.526 295.221 182.336 294.924 184.458 294.924C186.517 294.924 188.389 295.221 190.012 295.817C191.635 296.412 192.945 297.246 194.006 298.318C195.067 299.39 195.879 300.7 196.44 302.248C197.002 303.796 197.252 305.583 197.252 307.488C197.252 309.394 197.002 311.18 196.44 312.728C195.879 314.277 195.067 315.587 194.006 316.718C192.945 317.79 191.572 318.624 190.012 319.219C188.452 319.815 186.58 320.112 184.52 320.112C182.398 320.112 180.588 319.815 179.028 319.219C177.468 318.624 176.095 317.79 175.034 316.718C173.973 315.646 173.161 314.277 172.6 312.728C171.976 311.18 171.663 309.453 171.663 307.488Z" fill="#9A1032"/>
<path d="M206.566 305.456H208.376C208.938 305.456 209.5 305.456 210.061 305.396C210.685 305.337 211.185 305.277 211.684 305.039C212.183 304.861 212.558 304.563 212.87 304.206C213.182 303.848 213.369 303.312 213.369 302.598C213.369 302.062 213.244 301.585 212.932 301.228C212.683 300.871 212.308 300.573 211.871 300.394C211.434 300.216 210.873 300.097 210.311 300.037C209.687 299.978 209.063 299.918 208.439 299.918H206.629V305.456H206.566ZM199.764 295.333H211.871C212.995 295.333 214.056 295.452 215.054 295.69C216.053 295.928 216.926 296.345 217.675 296.822C218.424 297.358 219.048 297.953 219.423 298.727C219.86 299.501 220.047 300.394 220.047 301.466C220.047 303.074 219.673 304.444 218.861 305.456C218.05 306.468 216.802 307.183 215.179 307.6V307.659C215.741 307.778 216.115 308.017 216.49 308.314C216.802 308.612 217.114 308.969 217.363 309.446C217.613 309.922 217.8 310.399 218.05 310.994C218.237 311.589 218.549 312.244 218.861 313.019L221.358 319.628H214.305L212.87 315.222C212.558 314.15 212.183 313.316 211.934 312.661C211.622 312.006 211.31 311.47 210.935 311.054C210.561 310.637 210.186 310.399 209.749 310.22C209.312 310.041 208.751 309.982 208.127 309.982H206.691V319.688H199.888V295.333H199.764Z" fill="#9A1032"/>
<path d="M224.223 295.339H231.026V314.871H241.511V319.694H224.223V295.339Z" fill="#9A1032"/>
<path d="M250.699 314.852H253.32C255.879 314.852 257.813 314.256 259.186 313.006C260.559 311.755 261.246 309.969 261.246 307.527C261.246 305.086 260.559 303.24 259.186 302.049C257.813 300.798 255.879 300.203 253.32 300.203H250.699V314.852ZM243.896 295.32H253.195C255.442 295.32 257.439 295.499 259.311 295.856C261.184 296.213 262.744 296.868 264.054 297.821C265.365 298.714 266.426 299.965 267.175 301.513C267.924 303.061 268.298 305.026 268.298 307.349C268.298 309.611 267.924 311.517 267.175 313.125C266.426 314.673 265.365 315.924 264.054 316.876C262.744 317.829 261.121 318.544 259.249 318.96C257.376 319.377 255.379 319.615 253.195 319.615H243.896V295.32V295.32Z" fill="#9A1032"/>
<path fill-rule="evenodd" clip-rule="evenodd" d="M53.2984 295.339V319.635H61.2245V310.881H66.9663L69.0258 305.581H61.2245V300.639H70.8357L72.8328 295.339H53.2984V295.339Z" fill="#9A1032"/>
<path fill-rule="evenodd" clip-rule="evenodd" d="M75.2696 319.679H83.1957V295.383H75.2696V319.679Z" fill="#9A1032"/>
<path fill-rule="evenodd" clip-rule="evenodd" d="M88.6858 295.339V319.635H96.6119V310.881H102.291L104.351 305.581H96.6119V300.639H106.223L108.22 295.339H88.6858V295.339Z" fill="#9A1032"/>
<path fill-rule="evenodd" clip-rule="evenodd" d="M120.598 311.701L117.415 301.578L114.357 311.701H120.598ZM130.958 319.68H122.97L121.909 316.405H112.984L111.986 319.68H104.184L113.484 295.385H121.722L130.958 319.68Z" fill="#9A1032"/>
</g>
<defs>
<linearGradient id="paint0_linear_7_2565" x1="167.321" y1="55.8072" x2="188.842" y2="41.1965" gradientUnits="userSpaceOnUse">
<stop stop-color="#FAF6F2"/>
<stop offset="1" stop-color="#FFFBF7"/>
</linearGradient>
<linearGradient id="paint1_linear_7_2565" x1="208.236" y1="247.292" x2="188.138" y2="160.665" gradientUnits="userSpaceOnUse">
<stop stop-color="#FAF6F2"/>
<stop offset="0.5124" stop-color="#FFFBF7"/>
<stop offset="0.6773" stop-color="#FFFBF7"/>
<stop offset="0.901" stop-color="#EBE7E3"/>
<stop offset="1" stop-color="#CCC9C6"/>
</linearGradient>
<linearGradient id="paint2_linear_7_2565" x1="167.362" y1="60.4135" x2="153.558" y2="85.3826" gradientUnits="userSpaceOnUse">
<stop stop-color="#791426"/>
<stop offset="0.5347" stop-color="#AF1C3B"/>
<stop offset="1" stop-color="#791426"/>
</linearGradient>
<linearGradient id="paint3_linear_7_2565" x1="163.51" y1="58.2755" x2="149.706" y2="83.2462" gradientUnits="userSpaceOnUse">
<stop stop-color="#791426"/>
<stop offset="0.5347" stop-color="#AF1C3B"/>
<stop offset="1" stop-color="#791426"/>
</linearGradient>
<linearGradient id="paint4_linear_7_2565" x1="173.506" y1="63.8186" x2="159.702" y2="88.787" gradientUnits="userSpaceOnUse">
<stop stop-color="#791426"/>
<stop offset="0.5347" stop-color="#AF1C3B"/>
<stop offset="1" stop-color="#791426"/>
</linearGradient>
<linearGradient id="paint5_linear_7_2565" x1="174.01" y1="331.592" x2="225.619" y2="203.129" gradientUnits="userSpaceOnUse">
<stop stop-color="#791426"/>
<stop offset="0.5347" stop-color="#AF1C3B"/>
<stop offset="1" stop-color="#791426"/>
</linearGradient>
<linearGradient id="paint6_linear_7_2565" x1="172.936" y1="119.103" x2="233.186" y2="260.43" gradientUnits="userSpaceOnUse">
<stop stop-color="#791426"/>
<stop offset="0.5347" stop-color="#AF1C3B"/>
<stop offset="1" stop-color="#791426"/>
</linearGradient>
<clipPath id="clip0_7_2565">
<rect width="400" height="400" fill="white"/>
</clipPath>
</defs>
</svg>
