<svg width="64" height="60" viewBox="0 0 64 60" fill="none" xmlns="http://www.w3.org/2000/svg">
<g clip-path="url(#clip0_4_15)">
<path d="M63.25 11.6809C63.25 7.59862 59.2461 4.27959 54.3214 4.27959H9.67857C4.75391 4.27959 0.75 7.59862 0.75 11.6809V48.6875C0.75 52.7698 4.75391 56.0888 9.67857 56.0888H54.3214C59.2461 56.0888 63.25 52.7698 63.25 48.6875V11.6809ZM36.4643 19.0822C36.4643 21.1292 34.4693 22.7829 32 22.7829H18.6071C16.1378 22.7829 14.1429 21.1292 14.1429 19.0822C14.1429 17.0353 16.1378 15.3816 18.6071 15.3816H32C34.4693 15.3816 36.4643 17.0353 36.4643 19.0822ZM45.3929 26.4835C47.8622 26.4835 49.8571 28.1373 49.8571 30.1842C49.8571 32.2311 47.8622 33.8849 45.3929 33.8849H18.6071C16.1378 33.8849 14.1429 32.2311 14.1429 30.1842C14.1429 28.1373 16.1378 26.4835 18.6071 26.4835H45.3929ZM27.5357 41.2862C27.5357 43.3331 25.5407 44.9868 23.0714 44.9868H18.6071C16.1378 44.9868 14.1429 43.3331 14.1429 41.2862C14.1429 39.2392 16.1378 37.5855 18.6071 37.5855H23.0714C25.5407 37.5855 27.5357 39.2392 27.5357 41.2862Z" fill="black"/>
</g>
<defs>
<clipPath id="clip0_4_15">
<rect width="62.5" height="59.2105" fill="white" transform="translate(0.75 0.578934)"/>
</clipPath>
</defs>
</svg>
