<svg width="64" height="60" viewBox="0 0 64 60" fill="none" xmlns="http://www.w3.org/2000/svg">
<g clip-path="url(#clip0_7_3108)">
<path d="M63.25 11.681C63.25 7.59869 59.2461 4.27966 54.3214 4.27966H9.67857C4.75391 4.27966 0.75 7.59869 0.75 11.681V48.6876C0.75 52.7699 4.75391 56.0889 9.67857 56.0889H54.3214C59.2461 56.0889 63.25 52.7699 63.25 48.6876V11.681ZM36.4643 19.0823C36.4643 21.1292 34.4693 22.783 32 22.783H18.6071C16.1378 22.783 14.1429 21.1292 14.1429 19.0823C14.1429 17.0354 16.1378 15.3816 18.6071 15.3816H32C34.4693 15.3816 36.4643 17.0354 36.4643 19.0823ZM45.3929 26.4836C47.8622 26.4836 49.8571 28.1373 49.8571 30.1843C49.8571 32.2312 47.8622 33.8849 45.3929 33.8849H18.6071C16.1378 33.8849 14.1429 32.2312 14.1429 30.1843C14.1429 28.1373 16.1378 26.4836 18.6071 26.4836H45.3929ZM27.5357 41.2862C27.5357 43.3332 25.5407 44.9869 23.0714 44.9869H18.6071C16.1378 44.9869 14.1429 43.3332 14.1429 41.2862C14.1429 39.2393 16.1378 37.5856 18.6071 37.5856H23.0714C25.5407 37.5856 27.5357 39.2393 27.5357 41.2862Z" fill="black"/>
</g>
<defs>
<clipPath id="clip0_7_3108">
<rect width="62.5" height="59.2105" fill="white" transform="translate(0.75 0.578979)"/>
</clipPath>
</defs>
</svg>
