<svg width="64" height="60" viewBox="0 0 64 60" fill="none" xmlns="http://www.w3.org/2000/svg">
<path d="M22.3686 27.226L26.1284 37.796H37.9082L41.5239 27.2283L32 20.6921L22.3686 27.226ZM31.8901 0.789459C14.7392 0.789459 0.75 14.0424 0.75 30.3947C0.75 46.747 14.7392 60 32 60C49.2607 60 63.1401 46.747 63.1401 30.4988C63.1401 14.2506 49.2607 0.789459 31.8901 0.789459ZM53.875 42.5491L41.1919 42.3666L37.448 53.8756C35.6865 54.2408 33.8677 54.449 32 54.449C30.1323 54.449 28.3147 54.244 26.5605 53.8789L22.8203 42.3756L10.1287 42.5491C8.30614 39.6175 7.10253 36.3031 6.7351 32.7516L17.144 25.8152L13.0425 14.4472C15.4656 11.8637 18.4526 9.76934 21.8364 8.36193L32 15.5921L42.1672 8.36771C45.551 9.77512 48.5381 11.8683 50.9612 14.453L46.856 25.8152L57.26 32.7504C56.7925 36.3042 55.6938 39.6232 53.875 42.5491Z" fill="white"/>
</svg>
